<?xml version="1.0" encoding="UTF-8" standalone="no"?>
<svg
   xmlns:dc="http://purl.org/dc/elements/1.1/"
   xmlns:cc="http://creativecommons.org/ns#"
   xmlns:rdf="http://www.w3.org/1999/02/22-rdf-syntax-ns#"
   xmlns:svg="http://www.w3.org/2000/svg"
   xmlns="http://www.w3.org/2000/svg"
   version="1.1"
   id="svg2"
   viewBox="0 0 161.80939 180.41688"
   height="50.917652mm"
   width="45.666206mm">
  <defs
     id="defs4" />
  <metadata
     id="metadata7">
    <rdf:RDF>
      <cc:Work
         rdf:about="">
        <dc:format>image/svg+xml</dc:format>
        <dc:type
           rdf:resource="http://purl.org/dc/dcmitype/StillImage" />
        <dc:title></dc:title>
      </cc:Work>
    </rdf:RDF>
  </metadata>
  <g
     transform="translate(-125.52457,-216.4429)"
     id="layer1">
    <g
       transform="matrix(0.50058908,0,0,0.50058908,62.688341,108.09395)"
       id="g4214">
      <path
         style="fill:#f2f2f2;stroke:#c6c6c6;stroke-width:7.08661413;stroke-miterlimit:4;stroke-dasharray:none;stroke-opacity:1"
         d="m 244.83387,221.1023 -67.42778,155.74538 13.17099,9.12664 27.69113,-31.59928 24.43604,37.04477 35.77409,-35.88523 25.35577,42.11245 41.76075,-31.73546 18.05711,37.39469 49.51061,-24.46632 30.94055,-71.46679 -199.26926,-86.27085 z m 156.32279,185.46904 -49.59943,21.0779 -8.13726,-31.54422 -48.09911,21.20601 -23.69461,-35.16373 -32.93378,29.32955 -26.88331,-34.99056 -22.62344,30.67955 -18.12092,-15.67099 -40.88082,94.42692 199.26926,86.27085 71.70342,-165.62128 z"
         id="rect4136" />
      <path
         style="font-style:normal;font-weight:normal;font-size:40px;line-height:125%;font-family:sans-serif;letter-spacing:0px;word-spacing:0px;fill:#b3b3b3;fill-opacity:1;stroke:none;stroke-width:1px;stroke-linecap:butt;stroke-linejoin:miter;stroke-opacity:1"
         d="m 377.22786,362.98667 c -10.61933,1.58554 -20.58995,3.74585 -29.9206,6.47137 l 7.07564,14.65194 c 10.3424,-3.797 21.43146,-6.85461 33.3026,-9.1361 l -10.45764,-11.98721 z m -97.67253,-37.09075 -19.02733,16.60187 13.79037,15.80739 19.02734,-16.60187 -13.79038,-15.80739 z m 56.57868,47.204 c -2.80587,1.01815 -5.54856,2.09506 -8.22346,3.22907 -10.03629,4.25481 -19.26332,9.36432 -27.68559,15.32438 l 3.60915,5.99366 32.2999,-24.54711 z m -50.23095,30.23503 c -9.69593,9.08165 -18.16912,19.68636 -25.4133,31.81925 -8.06881,13.63694 -14.70363,29.31973 -19.90393,47.05093 l 10.45763,11.9872 c 5.6414,-16.62073 12.66813,-31.50404 21.07917,-44.64793 8.50455,-13.13751 18.5252,-24.73841 30.06184,-34.80399 0.36217,-0.31599 0.72875,-0.62517 1.0934,-0.9377 l -7.95701,3.50832 -9.4178,-13.97608 z m -70.17628,-21.74941 -15.50431,13.52784 13.79114,15.8056 14.51865,-12.66695 -12.80548,-16.66649 z"
         id="flowRoot4157" />
    </g>
  </g>
</svg>
